<svg preserveAspectRatio="none" width="100%" height="100%" overflow="visible" style="display: block;" viewBox="0 0 43.1433 24.0003" fill="none" xmlns="http://www.w3.org/2000/svg">
<g id="Frame 1410119812">
<path id="Path 3647" d="M42.2625 9.81873L33.5626 0.902689C32.9983 0.324685 32.2331 0 31.4353 0C30.6374 0 29.8723 0.324685 29.3079 0.902689L22.4231 7.95855C22.1884 8.19875 21.8703 8.33365 21.5386 8.33365C21.2069 8.33365 20.8888 8.19875 20.6541 7.95855L13.7693 0.902689C13.205 0.324685 12.4398 0 11.642 0C10.8441 0 10.079 0.324685 9.51467 0.902689L8.80315 1.63187C8.77414 1.66158 8.75113 1.69687 8.73542 1.73571C8.71972 1.77454 8.71162 1.81618 8.71162 1.85822C8.71162 1.90026 8.71972 1.94188 8.73542 1.98072C8.75113 2.01956 8.77414 2.05484 8.80315 2.08456L29.3065 23.0973C29.8708 23.6753 30.636 24 31.4338 24C32.2316 24 32.9968 23.6753 33.5611 23.0973L42.261 14.1813C42.8257 13.603 43.1431 12.8184 43.1433 12.0003C43.1436 11.1822 42.8267 10.3974 42.2625 9.81873ZM37.3611 12.905L32.3201 18.0712C32.0857 18.3113 31.7678 18.4462 31.4363 18.4462C31.1049 18.4462 30.787 18.3113 30.5525 18.0712L25.5116 12.905C25.2773 12.6647 25.1457 12.339 25.1457 11.9993C25.1457 11.6596 25.2773 11.3338 25.5116 11.0935L30.5525 5.92732C30.787 5.68721 31.1049 5.55234 31.4363 5.55234C31.7678 5.55234 32.0857 5.68721 32.3201 5.92732L37.3611 11.0935C37.5954 11.3338 37.727 11.6596 37.727 11.9993C37.727 12.339 37.5954 12.6647 37.3611 12.905V12.905Z" fill="var(--fill-0, white)"/>
<path id="Path 3648" d="M14.9441 15.6589L12.5909 18.0713C12.3565 18.3114 12.0386 18.4463 11.7071 18.4463C11.3757 18.4463 11.0578 18.3114 10.8233 18.0713L5.78238 12.9051C5.54809 12.6648 5.41649 12.339 5.41649 11.9993C5.41649 11.6596 5.54809 11.3339 5.78238 11.0936L9.96578 6.80624C9.9948 6.77652 10.0178 6.74124 10.0335 6.7024C10.0492 6.66356 10.0573 6.62194 10.0573 6.5799C10.0573 6.53786 10.0492 6.49622 10.0335 6.45738C10.0178 6.41855 9.9948 6.38326 9.96578 6.35354L7.3356 3.65801C7.30661 3.62827 7.27217 3.60468 7.23427 3.58859C7.19637 3.57249 7.15576 3.56421 7.11474 3.56421C7.07372 3.56421 7.03309 3.57249 6.99519 3.58859C6.9573 3.60468 6.92287 3.62827 6.89387 3.65801L0.881008 9.82027C0.601704 10.1065 0.380144 10.4462 0.228983 10.8202C0.0778216 11.1941 1.59197e-05 11.5949 1.59197e-05 11.9997C1.59197e-05 12.4045 0.0778216 12.8053 0.228983 13.1792C0.380144 13.5532 0.601704 13.8929 0.881008 14.1791L9.58089 23.0952C10.1452 23.6732 10.9104 23.9979 11.7082 23.9979C12.506 23.9979 13.2712 23.6732 13.8355 23.0952L19.8484 16.9329C19.8774 16.9032 19.9004 16.8679 19.9161 16.8291C19.9318 16.7902 19.9399 16.7486 19.9399 16.7066C19.9399 16.6645 19.9318 16.6229 19.9161 16.584C19.9004 16.5452 19.8774 16.5099 19.8484 16.4802L19.047 15.6589C18.5026 15.1019 17.7648 14.7891 16.9955 14.7891C16.2263 14.7891 15.4885 15.1019 14.9441 15.6589V15.6589Z" fill="var(--fill-0, #1CAF4B)"/>
</g>
</svg>
