<svg preserveAspectRatio="none" width="100%" height="100%" overflow="visible" style="display: block;" viewBox="0 0 15.625 18.7499" fill="none" xmlns="http://www.w3.org/2000/svg">
<path id="Vector" d="M13.251 0.600586C14.2283 0.584397 15.0253 1.39955 15.0254 2.37305V16.377C15.0253 17.3434 14.2414 18.1492 13.2812 18.1494C13.2713 18.1494 13.261 18.1496 13.251 18.1494L13.0645 18.1367C12.6326 18.0827 12.2338 17.8679 11.9492 17.5313L8.92383 13.9521C8.66116 13.6415 8.2752 13.4619 7.86816 13.4619H3.125C1.73327 13.4619 0.599664 12.3293 0.599609 10.9375V7.8125C0.599609 6.42075 1.73325 5.28711 3.125 5.28711H7.86816C8.22424 5.28711 8.56403 5.15063 8.81934 4.9082L8.92383 4.79785L11.9492 1.21875C12.2742 0.834216 12.7487 0.609147 13.251 0.600586ZM13.2578 0.962891C12.8592 0.969603 12.4827 1.14798 12.2256 1.45215L9.2002 5.03223C8.86792 5.42516 8.38271 5.65039 7.86816 5.65039H3.125C1.93207 5.65039 0.962891 6.61957 0.962891 7.8125V10.9375C0.962891 12.1304 1.93205 13.0996 3.125 13.0996H7.86816C8.38279 13.0996 8.86799 13.3248 9.2002 13.7178L12.2256 17.2969C12.4827 17.601 12.8591 17.7804 13.2578 17.7871H13.2588C14.072 17.7993 14.662 17.1071 14.6621 16.377V2.37305C14.662 1.63164 14.0603 0.949497 13.2578 0.962891Z" fill="var(--fill-0, white)" stroke="var(--stroke-0, white)" stroke-width="1.2"/>
</svg>
