<svg width="20" height="20" viewBox="0 0 20 20" fill="none" xmlns="http://www.w3.org/2000/svg">
  <!-- Megaphone body -->
  <path d="M13.251 0.600586C14.2283 0.584397 15.0253 1.39955 15.0254 2.37305V16.377C15.0253 17.3434 14.2414 18.1492 13.2812 18.1494C13.2713 18.1494 13.261 18.1496 13.251 18.1494L13.0645 18.1367C12.6326 18.0827 12.2338 17.8679 11.9492 17.5313L8.92383 13.9521C8.66116 13.6415 8.2752 13.4619 7.86816 13.4619H3.125C1.73327 13.4619 0.599664 12.3293 0.599609 10.9375V7.8125C0.599609 6.42075 1.73325 5.28711 3.125 5.28711H7.86816C8.22424 5.28711 8.56403 5.15063 8.81934 4.9082L8.92383 4.79785L11.9492 1.21875C12.2742 0.834216 12.7487 0.609147 13.251 0.600586Z" stroke="white" stroke-width="1.2" fill="none"/>
  <!-- Sound wave large -->
  <path d="M17.656 2.943C18.617 2.927 18.4 3.726 18.4 4.687C18.4 5.648 18.617 6.431 17.656 6.431" stroke="white" stroke-width="1.2" fill="none" transform="translate(16.876, 7.032) scale(0.625, 0.9375)"/>
  <!-- Bottom part -->
  <path d="M2.344 13.042C2.344 13.042 2.344 14.459 2.344 15.215C2.344 16.176 3.127 16.959 4.088 16.959C5.049 16.959 5.287 16.176 5.287 15.215V13.465" stroke="white" stroke-width="1.2" fill="none" transform="translate(1.562, 12.442) scale(0.9375, 0.756)"/>
  <!-- Dot -->
  <circle cx="7.031" cy="9.375" r="0.6" stroke="white" stroke-width="1.0" fill="none"/>
</svg>
