<svg preserveAspectRatio="none" width="100%" height="100%" overflow="visible" style="display: block;" viewBox="0 0 56 44.0251" fill="none" xmlns="http://www.w3.org/2000/svg">
<g id="cb logo">
<path id="Path 3647" d="M54.8556 12.7383L43.5689 1.1711C42.8367 0.421229 41.844 0 40.809 0C39.7739 0 38.7812 0.421229 38.0491 1.1711L29.1171 10.325C28.8126 10.6366 28.3999 10.8117 27.9696 10.8117C27.5393 10.8117 27.1265 10.6366 26.822 10.325L17.8901 1.1711C17.1579 0.421229 16.1652 0 15.1302 0C14.0951 0 13.1024 0.421229 12.3703 1.1711L11.4472 2.1171C11.4096 2.15565 11.3797 2.20143 11.3594 2.25182C11.339 2.3022 11.3285 2.35622 11.3285 2.41076C11.3285 2.4653 11.339 2.5193 11.3594 2.56969C11.3797 2.62008 11.4096 2.66585 11.4472 2.7044L38.0472 29.9653C38.7793 30.7151 39.772 31.1364 40.8071 31.1364C41.8422 31.1364 42.8349 30.7151 43.567 29.9653L54.8538 18.3981C55.5863 17.6478 55.9981 16.63 55.9984 15.5686C55.9988 14.5072 55.5877 13.4891 54.8556 12.7383ZM48.4969 16.7423L41.957 23.4447C41.6528 23.7562 41.2404 23.9312 40.8104 23.9312C40.3804 23.9312 39.9679 23.7562 39.6638 23.4447L33.1239 16.7423C32.82 16.4306 32.6492 16.0079 32.6492 15.5672C32.6492 15.1265 32.82 14.7039 33.1239 14.3922L39.6638 7.6898C39.9679 7.3783 40.3804 7.20332 40.8104 7.20332C41.2404 7.20332 41.6528 7.3783 41.957 7.6898L48.4969 14.3922C48.8008 14.7039 48.9715 15.1265 48.9715 15.5672C48.9715 16.0079 48.8008 16.4306 48.4969 16.7423V16.7423Z" fill="var(--fill-0, white)"/>
<path id="Path 3648" d="M19.4142 20.315L16.3613 23.4448C16.0571 23.7563 15.6447 23.9313 15.2147 23.9313C14.7847 23.9313 14.3723 23.7563 14.0681 23.4448L7.52823 16.7424C7.22428 16.4307 7.05355 16.008 7.05355 15.5673C7.05355 15.1266 7.22428 14.704 7.52823 14.3922L12.9556 8.83007C12.9932 8.79152 13.0231 8.74574 13.0435 8.69536C13.0638 8.64497 13.0743 8.59097 13.0743 8.53643C13.0743 8.48189 13.0638 8.42787 13.0435 8.37748C13.0231 8.3271 12.9932 8.28132 12.9556 8.24277L9.54331 4.74572C9.50569 4.70714 9.46101 4.67653 9.41185 4.65565C9.36268 4.63477 9.30999 4.62402 9.25677 4.62402C9.20355 4.62402 9.15085 4.63477 9.10168 4.65565C9.05252 4.67653 9.00785 4.70714 8.97023 4.74572L1.16944 12.7403C0.807089 13.1116 0.519648 13.5524 0.323539 14.0376C0.12743 14.5227 0.0264893 15.0427 0.0264893 15.5678C0.0264893 16.0929 0.12743 16.6129 0.323539 17.0981C0.519648 17.5832 0.807089 18.024 1.16944 18.3953L12.4562 29.9625C13.1883 30.7124 14.181 31.1336 15.2161 31.1336C16.2512 31.1336 17.2439 30.7124 17.976 29.9625L25.7768 21.9679C25.8144 21.9293 25.8443 21.8836 25.8647 21.8332C25.885 21.7828 25.8955 21.7288 25.8955 21.6743C25.8955 21.6197 25.885 21.5657 25.8647 21.5153C25.8443 21.4649 25.8144 21.4191 25.7768 21.3806L24.737 20.315C24.0308 19.5924 23.0736 19.1866 22.0756 19.1866C21.0777 19.1866 20.1205 19.5924 19.4142 20.315V20.315Z" fill="var(--fill-0, #1CAF4B)"/>
<g id="Group 3840">
<path id="Path 3649" d="M15.6473 44.0025C12.6327 44.0025 11.6835 41.8341 11.6835 40.2625C11.6835 38.691 12.6327 36.5225 15.6473 36.5225C18.662 36.5225 19.6112 38.691 19.6112 40.2625C19.6112 41.8341 18.662 44.0025 15.6473 44.0025ZM15.6473 42.2569C15.9118 42.2714 16.1764 42.2306 16.4249 42.1369C16.6735 42.0432 16.9008 41.8986 17.093 41.7118C17.2852 41.5251 17.4383 41.3002 17.5429 41.0509C17.6476 40.8015 17.7015 40.533 17.7015 40.2616C17.7015 39.9901 17.6476 39.7216 17.5429 39.4722C17.4383 39.2229 17.2852 38.998 17.093 38.8113C16.9008 38.6246 16.6735 38.4799 16.4249 38.3862C16.1764 38.2925 15.9118 38.2517 15.6473 38.2663C15.3829 38.2517 15.1183 38.2925 14.8698 38.3862C14.6212 38.4799 14.3939 38.6246 14.2017 38.8113C14.0094 38.998 13.8564 39.2229 13.7517 39.4722C13.6471 39.7216 13.5931 39.9901 13.5931 40.2616C13.5931 40.533 13.6471 40.8015 13.7517 41.0509C13.8564 41.3002 14.0094 41.5251 14.2017 41.7118C14.3939 41.8986 14.6212 42.0432 14.8698 42.1369C15.1183 42.2306 15.3829 42.2714 15.6473 42.2569Z" fill="var(--fill-0, #1CAF4B)"/>
<path id="Path 3650" d="M31.2667 44.0025C28.252 44.0025 27.3028 41.8341 27.3028 40.2625C27.3028 38.691 28.252 36.5225 31.2667 36.5225C34.2813 36.5225 35.2305 38.691 35.2305 40.2625C35.2305 41.8341 34.2804 44.0025 31.2667 44.0025ZM31.2667 42.2569C31.5311 42.2714 31.7957 42.2306 32.0443 42.1369C32.2928 42.0432 32.5201 41.8986 32.7123 41.7118C32.9046 41.5251 33.0577 41.3002 33.1623 41.0509C33.2669 40.8015 33.3209 40.533 33.3209 40.2616C33.3209 39.9901 33.2669 39.7216 33.1623 39.4722C33.0577 39.2229 32.9046 38.998 32.7123 38.8113C32.5201 38.6246 32.2928 38.4799 32.0443 38.3862C31.7957 38.2925 31.5311 38.2517 31.2667 38.2663C31.0022 38.2517 30.7376 38.2925 30.4891 38.3862C30.2405 38.4799 30.0132 38.6246 29.821 38.8113C29.6288 38.998 29.4757 39.2229 29.3711 39.4722C29.2664 39.7216 29.2125 39.9901 29.2125 40.2616C29.2125 40.533 29.2664 40.8015 29.3711 41.0509C29.4757 41.3002 29.6288 41.5251 29.821 41.7118C30.0132 41.8986 30.2405 42.0432 30.4891 42.1369C30.7376 42.2306 31.0022 42.2714 31.2667 42.2569V42.2569Z" fill="var(--fill-0, #1CAF4B)"/>
<path id="Path 3651" d="M5.6784 38.733L6.32707 37.6158C6.34351 37.5886 6.35025 37.5564 6.34617 37.5247C6.34209 37.493 6.32743 37.4637 6.30467 37.4418C5.67153 36.8336 4.83143 36.5034 3.96388 36.5216C0.949209 36.5216 0 38.69 0 40.2616C0 41.8331 0.949209 44.0016 3.96388 44.0016C4.44213 44.0187 4.91768 43.9214 5.35284 43.7173C5.78799 43.5132 6.17077 43.2081 6.4708 42.826C6.48613 42.8029 6.49433 42.7755 6.49433 42.7476C6.49433 42.7196 6.48613 42.6923 6.4708 42.6691L5.79693 41.595C5.78657 41.5785 5.77298 41.5643 5.75701 41.5535C5.74105 41.5427 5.72306 41.5354 5.70419 41.532C5.68532 41.5287 5.66599 41.5294 5.64741 41.5342C5.62883 41.5389 5.61141 41.5476 5.59627 41.5596C5.09982 42.0078 4.46122 42.2557 3.7996 42.2569C3.29249 42.2446 2.81041 42.0285 2.45736 41.6552C2.10431 41.282 1.90858 40.7814 1.9124 40.2616C1.89813 39.9867 1.9422 39.7118 2.04155 39.456C2.14091 39.2002 2.2932 38.9696 2.48793 38.7799C2.68265 38.5903 2.91519 38.4461 3.16951 38.3575C3.42383 38.2688 3.69389 38.2377 3.96107 38.2663C4.50655 38.2664 5.03782 38.4446 5.47774 38.7751C5.49329 38.7868 5.51107 38.7951 5.52992 38.7993C5.54877 38.8035 5.56828 38.8037 5.58718 38.7997C5.60609 38.7957 5.62396 38.7878 5.63968 38.7763C5.65539 38.7648 5.66858 38.7501 5.6784 38.733V38.733Z" fill="var(--fill-0, #1CAF4B)"/>
<path id="Path 3652" d="M26.2108 38.733L26.8595 37.6158C26.8759 37.5886 26.8826 37.5564 26.8786 37.5247C26.8745 37.493 26.8598 37.4637 26.8371 37.4418C26.2039 36.8336 25.3638 36.5034 24.4963 36.5216C21.4816 36.5216 20.5324 38.69 20.5324 40.2616C20.5324 41.8331 21.4816 44.0016 24.4963 44.0016C24.9745 44.0187 25.4501 43.9214 25.8852 43.7173C26.3204 43.5132 26.7032 43.2081 27.0032 42.826C27.0185 42.8029 27.0267 42.7755 27.0267 42.7476C27.0267 42.7196 27.0185 42.6923 27.0032 42.6691L26.3293 41.595C26.319 41.5785 26.3054 41.5643 26.2894 41.5535C26.2735 41.5427 26.2555 41.5354 26.2366 41.532C26.2177 41.5287 26.1984 41.5294 26.1798 41.5342C26.1612 41.5389 26.1438 41.5476 26.1287 41.5596C25.6322 42.0078 24.9936 42.2557 24.332 42.2569C23.8249 42.2446 23.3428 42.0285 22.9898 41.6552C22.6367 41.282 22.441 40.7814 22.4448 40.2616C22.4305 39.9867 22.4746 39.7118 22.5739 39.456C22.6733 39.2002 22.8256 38.9696 23.0203 38.7799C23.2151 38.5903 23.4476 38.4461 23.7019 38.3575C23.9562 38.2688 24.2263 38.2377 24.4935 38.2663C25.039 38.2664 25.5702 38.4446 26.0101 38.7751C26.0257 38.7868 26.0435 38.7951 26.0623 38.7993C26.0812 38.8035 26.1007 38.8037 26.1196 38.7997C26.1385 38.7957 26.1564 38.7878 26.1721 38.7763C26.1878 38.7648 26.201 38.7501 26.2108 38.733V38.733Z" fill="var(--fill-0, #1CAF4B)"/>
<path id="Path 3653" d="M9.36413 40.1277C9.36413 40.3046 9.36413 43.1885 9.36413 43.8581C9.36425 43.8767 9.36077 43.8952 9.35387 43.9124C9.34698 43.9296 9.33682 43.9453 9.32397 43.9585C9.31111 43.9716 9.29584 43.9821 9.27902 43.9892C9.2622 43.9962 9.24419 43.9998 9.22601 43.9997H7.378C7.35983 43.9998 7.34181 43.9962 7.325 43.9892C7.30818 43.9821 7.2929 43.9716 7.28005 43.9585C7.2672 43.9453 7.25704 43.9296 7.25014 43.9124C7.24324 43.8952 7.23974 43.8767 7.23986 43.8581V40.2482C7.23986 38.8134 8.02574 36.5838 11.2131 36.5178C11.2315 36.5175 11.2499 36.521 11.267 36.528C11.2841 36.5351 11.2998 36.5455 11.3129 36.5587C11.3261 36.572 11.3366 36.5878 11.3438 36.6052C11.3511 36.6226 11.3548 36.6413 11.355 36.6603V38.1237C11.3555 38.1606 11.3417 38.1962 11.3167 38.2227C11.2917 38.2492 11.2575 38.2646 11.2215 38.2653C10.9747 38.2389 10.7252 38.2685 10.4909 38.3521C10.2566 38.4358 10.0431 38.5713 9.86577 38.7492C9.68841 38.927 9.55149 39.1427 9.46479 39.381C9.37808 39.6193 9.3437 39.8742 9.36413 40.1277Z" fill="var(--fill-0, #1CAF4B)"/>
<path id="Path 3654" d="M39.8151 36.5206C39.2751 36.5582 38.7515 36.7264 38.2872 37.0113V34.927C38.2873 34.9074 38.2834 34.888 38.2757 34.8701C38.2681 34.8521 38.2569 34.8359 38.2429 34.8226C38.2288 34.8093 38.2123 34.7992 38.1942 34.7928C38.1761 34.7864 38.1569 34.7839 38.1379 34.7855L36.2899 34.9299C36.2551 34.9326 36.2225 34.9487 36.1988 34.9749C36.175 35.0012 36.1619 35.0357 36.162 35.0715V43.2689C36.162 43.297 36.1702 43.3245 36.1855 43.3478C36.2008 43.3711 36.2225 43.3893 36.2479 43.3999C37.3906 43.8213 38.599 44.0242 39.8132 43.9987C40.7808 43.9987 41.7088 43.6047 42.393 42.9035C43.0772 42.2023 43.4616 41.2513 43.4616 40.2596C43.4616 39.268 43.0772 38.317 42.393 37.6158C41.7088 36.9145 40.7808 36.5206 39.8132 36.5206H39.8151ZM39.7077 42.2597C39.2297 42.2717 38.7522 42.2199 38.2872 42.1057V38.8076C38.6726 38.4426 39.1833 38.2487 39.7077 38.2682C40.206 38.2956 40.6751 38.5177 41.0184 38.8889C41.3617 39.2601 41.553 39.7521 41.553 40.2635C41.553 40.7749 41.3617 41.2668 41.0184 41.638C40.6751 42.0092 40.206 42.2314 39.7077 42.2588V42.2597Z" fill="var(--fill-0, white)"/>
<path id="Path 3655" d="M55.9972 43.7012C56.0045 43.7375 55.9976 43.7752 55.9781 43.8063C55.9585 43.8374 55.9279 43.8594 55.8927 43.8677C55.4862 43.9586 55.0712 44.0035 54.6551 44.0016C54.3449 44.0486 54.0285 44.0248 53.7283 43.9321C53.4281 43.8393 53.1516 43.6798 52.9185 43.4649C52.6854 43.2501 52.5015 42.9851 52.3797 42.689C52.258 42.3929 52.2016 42.0729 52.2144 41.7518V35.0705C52.2143 35.0347 52.2275 35.0002 52.2512 34.974C52.2749 34.9477 52.3074 34.9316 52.3423 34.929L54.1903 34.7845C54.2093 34.7831 54.2283 34.7857 54.2463 34.7921C54.2643 34.7986 54.2807 34.8088 54.2947 34.8221C54.3086 34.8354 54.3197 34.8515 54.3273 34.8694C54.3349 34.8873 54.3388 34.9066 54.3387 34.9261V36.3781C54.3386 36.3967 54.3421 36.4152 54.349 36.4324C54.3559 36.4497 54.366 36.4653 54.3789 36.4785C54.3917 36.4916 54.407 36.5021 54.4238 36.5091C54.4406 36.5162 54.4587 36.5198 54.4768 36.5197H55.6024C55.6206 36.5195 55.6386 36.5231 55.6554 36.5302C55.6722 36.5372 55.6875 36.5477 55.7004 36.5608C55.7132 36.574 55.7234 36.5897 55.7303 36.6069C55.7372 36.6241 55.7407 36.6426 55.7406 36.6612V38.1247C55.7407 38.1433 55.7372 38.1618 55.7303 38.179C55.7234 38.1963 55.7132 38.2119 55.7004 38.2251C55.6875 38.2383 55.6722 38.2487 55.6554 38.2557C55.6386 38.2628 55.6206 38.2664 55.6024 38.2663H54.4768C54.4587 38.2662 54.4406 38.2697 54.4238 38.2768C54.407 38.2839 54.3917 38.2943 54.3789 38.3074C54.366 38.3206 54.3559 38.3363 54.349 38.3535C54.3421 38.3707 54.3386 38.3892 54.3387 38.4078V41.3061C54.3536 42.3133 54.7661 42.497 55.6136 42.4013C55.6482 42.397 55.6831 42.4063 55.7113 42.4272C55.7395 42.4481 55.759 42.4792 55.7658 42.5142L55.9972 43.7012Z" fill="var(--fill-0, white)"/>
<path id="Path 3656" d="M46.4203 39.6255H48.7191C48.7934 39.6322 48.8683 39.6231 48.939 39.5988C49.0098 39.5745 49.0749 39.5355 49.1303 39.4843C49.1856 39.433 49.23 39.3706 49.2608 39.3009C49.2915 39.2312 49.3079 39.1558 49.3089 39.0793C49.2851 38.848 49.1758 38.635 49.0034 38.4837C48.831 38.3325 48.6087 38.2547 48.3821 38.2663C47.9527 38.2282 47.5235 38.3425 47.1664 38.5899C46.8093 38.8373 46.5459 39.2029 46.4203 39.6255V39.6255ZM48.3803 36.5206C49.5469 36.5206 51.2344 37.2858 51.2344 38.9798C51.2344 40.3859 50.1993 41.2123 48.0984 41.2123H46.5706C46.7706 41.5965 47.074 41.9136 47.4448 42.1261C47.8156 42.3385 48.2381 42.4374 48.6621 42.4109C49.251 42.3963 49.8276 42.2351 50.3421 41.9412C50.359 41.933 50.3773 41.9284 50.3959 41.9276C50.4146 41.9268 50.4332 41.9299 50.4506 41.9367C50.4681 41.9435 50.484 41.9538 50.4974 41.9671C50.5108 41.9804 50.5215 41.9963 50.5288 42.0139C50.68 42.3965 50.8284 42.7638 50.9787 43.1426C50.9915 43.1746 50.9925 43.2103 50.9815 43.2431C50.9705 43.2758 50.9483 43.3034 50.919 43.3205C50.1442 43.7816 49.2611 44.0167 48.3653 44.0006V44.0006C45.3507 44.0006 44.4127 41.8322 44.4127 40.2606C44.4127 38.689 45.3694 36.5206 48.384 36.5206H48.3803Z" fill="var(--fill-0, white)"/>
</g>
</g>
</svg>
