<svg preserveAspectRatio="none" width="100%" height="100%" overflow="visible" style="display: block;" viewBox="0 0 44.2229 23.999" fill="none" xmlns="http://www.w3.org/2000/svg">
<g id="cb logo">
<path id="Path 3647" d="M43.3198 9.81949L34.4058 0.902481C33.8276 0.324618 33.0437 0 32.2263 0C31.4088 0 30.6249 0.324618 30.0468 0.902481L22.9928 7.95949C22.7524 8.1996 22.4265 8.33446 22.0868 8.33446C21.747 8.33446 21.4211 8.1996 21.1808 7.95949L14.1268 0.902481C13.5486 0.324618 12.7647 0 11.9473 0C11.1299 0 10.3459 0.324618 9.76776 0.902481L9.03876 1.63148C9.00897 1.66121 8.98536 1.69652 8.96924 1.73538C8.95312 1.77425 8.94482 1.81591 8.94482 1.85799C8.94482 1.90006 8.95312 1.94172 8.96924 1.98059C8.98536 2.01946 9.00897 2.05476 9.03876 2.08449L30.0488 23.0965C30.6269 23.6743 31.4109 23.999 32.2283 23.999C33.0457 23.999 33.8296 23.6743 34.4078 23.0965L43.3218 14.1795C43.8992 13.6008 44.2233 12.8166 44.2229 11.9991C44.2226 11.1816 43.8977 10.3977 43.3198 9.81949V9.81949ZM38.2978 12.9055L33.1328 18.0725C32.8925 18.3125 32.5669 18.4474 32.2273 18.4474C31.8877 18.4474 31.562 18.3125 31.3218 18.0725L26.1568 12.9055C25.9167 12.6651 25.7818 12.3392 25.7818 11.9995C25.7818 11.6597 25.9167 11.3339 26.1568 11.0935L31.3218 5.92648C31.562 5.68643 31.8877 5.55159 32.2273 5.55159C32.5669 5.55159 32.8925 5.68643 33.1328 5.92648L38.2978 11.0935C38.5377 11.334 38.6724 11.6599 38.6722 11.9997C38.6721 12.3395 38.537 12.6652 38.2968 12.9055H38.2978Z" fill="var(--fill-0, white)"/>
<path id="Path 3648" d="M15.3386 15.6615L12.9236 18.0735C12.6828 18.3138 12.3566 18.4487 12.0166 18.4487C11.6765 18.4487 11.3503 18.3138 11.1096 18.0735L5.93657 12.9085C5.81744 12.7896 5.72292 12.6484 5.65843 12.493C5.59395 12.3375 5.56076 12.1708 5.56076 12.0025C5.56076 11.8342 5.59395 11.6676 5.65843 11.5121C5.72292 11.3567 5.81744 11.2154 5.93657 11.0965L10.2306 6.80954C10.2605 6.77988 10.2842 6.74459 10.3004 6.70572C10.3166 6.66684 10.3249 6.62515 10.3249 6.58304C10.3249 6.54092 10.3166 6.49923 10.3004 6.46036C10.2842 6.42148 10.2605 6.38619 10.2306 6.35654L7.53056 3.65654C7.50076 3.62673 7.46537 3.60308 7.42642 3.58694C7.38747 3.57081 7.34572 3.5625 7.30356 3.5625C7.2614 3.5625 7.21966 3.57081 7.18071 3.58694C7.14176 3.60308 7.10638 3.62673 7.07657 3.65654L0.904556 9.82254C0.61783 10.1085 0.390343 10.4482 0.235123 10.8222C0.0799028 11.1962 0 11.5971 0 12.002C0 12.407 0.0799028 12.8079 0.235123 13.1819C0.390343 13.5559 0.61783 13.8956 0.904556 14.1815L9.83257 23.0965C10.4122 23.6743 11.1972 23.9988 12.0156 23.9988C12.834 23.9988 13.619 23.6743 14.1986 23.0965L20.3696 16.9355C20.3995 16.9059 20.4232 16.8706 20.4394 16.8317C20.4556 16.7929 20.4639 16.7512 20.4639 16.709C20.4639 16.6669 20.4556 16.6252 20.4394 16.5863C20.4232 16.5475 20.3995 16.5122 20.3696 16.4825L19.5476 15.6615C18.9885 15.1051 18.2319 14.7926 17.4431 14.7926C16.6543 14.7926 15.8976 15.1051 15.3386 15.6615Z" fill="var(--fill-0, #1CAF4B)"/>
</g>
</svg>
